# xmcd
#
# Track frame offsets:
#	150
#	11746
#	23895
#	37090
#	52826
#	63739
#	75163
#	90031
#	102530
#	114401
#	128547
#	142011
#	154535
#	165293
#	181699
#	197581
#	210964
#	222328
#	237246
#	251895
#
# Disc length: 3561 seconds
#
# Revision: 0
# Processed by: cddbd v1.5.2PL0 Copyright (c) Steve Scherf et al.
# Submitted via: EasyCDDAExtractor 16.0.6.1
#
DISCID=fa0de714
DTITLE=Λύδια Γιώτα - Τραγούδια 45 στροφές-Λύδια Γιώτα 4
DYEAR=2000
DGENRE=Λαϊκή
TTITLE0=Λύδια Γιώτα-Χατζηαντωνίου Γιώργος - Καπετάνιε μην πονάς [1967, Νίκος Δ
TTITLE0=αλέζιος]
TTITLE1=Λύδια Γιώτα-Μάριος - Χρωστάς πολλά σε μένα [1967, Π. Πετσάς-Ευτυχία Πα
TTITLE1=παγιαννοπούλου]
TTITLE2=Λύδια Γιώτα-Λαμπράκη Χαρούλα - Τα χαμένα όνειρα [1967, Αντώνης Κατινάρ
TTITLE2=ης-Ευτυχία Παπαγιαννοπούλου]
TTITLE3=Λύδια Γιώτα - Κλαίω για σένα [1963, Λάκης Καρνέζης-Κώστας Παπαδόπουλος
TTITLE3=]
TTITLE4=Λύδια Γιώτα - Παντρεμένος με μιά άλλη [1968, Αντώνης Κατινάρης-Ευτ. Πα
TTITLE4=παγιαννοπούλου]
TTITLE5=Λύδια Γιώτα - Της φτώχειας το λουλούδι [1969, Νίκος Δαλέζιος]
TTITLE6=Λύδια Γιώτα-Χρηστάκης - Δεν λυπάσαι μιά καρδιά [1963, Γιάννης Καραμπεσ
TTITLE6=ίνης]
TTITLE7=Λύδια Γιώτα-Ρεπάνης Αντώνης - Ο Αντώνης ο ψαράς [1970, Αντώνης Ρεπάνης
TTITLE7=Μιχάλης Τουτουντζής]
TTITLE8=Λύδια Γιώτα-Λαύκας Γιώργος - Το παιδί και η μάννα [1968, Γ. Λαύκας-Χρ.
TTITLE8=Κουρουμπουγιάννης]
TTITLE9=Λύδια Γιώτα-Διονυσίου Στράτος-Χιώτης Μ. - Ο τεμπέλης [1968, Νίκος Μουρ
TTITLE9=κάκος]
TTITLE10=Λύδια Γιώτα - Στην αγάπη μας βάζουνε φωτιά [1968, Τάκης Σούκας-Ηρακλή
TTITLE10=ς Παπασιδέρης]
TTITLE11=Λύδια Γιώτα-Χρυσάφη Άννα - Φύγε από μένα [1966, Λάκης Κέκεσης]
TTITLE12=Λύδια Γιώτα - Ταξιδιάρικο πουλί [1968, Αντώνης Κατινάρης]
TTITLE13=Λύδια Γιώτα-Χρηστάκης - Φεύγεις με μιάν άλληνε [1963, Στράτος Ατταλίδ
TTITLE13=ης-Άλκης Νερατζής]
TTITLE14=Λύδια Γιώτα - Είσαι εσύ ο άνθρωπός μου [1968, Τάκης Σούκας-Ηρακλής Πα
TTITLE14=πασιδέρης]
TTITLE15=Λύδια Γιώτα - Στους γονείς μου στέλνω γράμμα [1964, Νίκος Μουρκάκος-Γ
TTITLE15=Λαύκας]
TTITLE16=Λύδια Γιώτα-Κατινάρης Αντώνης - Δεν με θέλεις μιά, δεν σε θέλω δυό [1
TTITLE16=967, Αντώνης Κατινάρης-Ευτ. Παπαγιαννοπούλου]
TTITLE17=Λύδια Γιώτα-Χιώτης Μανώλης - Ποιος σού το είπε [1963, Στρ. Καμενίδης-
TTITLE17=Χαράλαμπος Βασιλειάδης]
TTITLE18=Λύδια Γιώτα - Μέσα στην καταστροφή μου [1967, Βασίλης Τσιτσάνης]
TTITLE19=Λύδια Γιώτα - Τη μαύρη θλίψη έχω παρέα [1965, Στράτος Ατταλίδης-Γιώργ
TTITLE19=ος Κονιτόπουλος]
EXTD=
EXTT0=
EXTT1=
EXTT2=
EXTT3=
EXTT4=
EXTT5=
EXTT6=
EXTT7=
EXTT8=
EXTT9=
EXTT10=
EXTT11=
EXTT12=
EXTT13=
EXTT14=
EXTT15=
EXTT16=
EXTT17=
EXTT18=
EXTT19=
PLAYORDER=
